<?xml version="1.0" encoding="utf-8"?>
<!-- Generator: Adobe Illustrator 16.0.0, SVG Export Plug-In . SVG Version: 6.00 Build 0)  -->
<!DOCTYPE svg PUBLIC "-//W3C//DTD SVG 1.1//EN" "http://www.w3.org/Graphics/SVG/1.1/DTD/svg11.dtd">
<svg version="1.1" id="Layer_3" xmlns="http://www.w3.org/2000/svg" xmlns:xlink="http://www.w3.org/1999/xlink" x="0px" y="0px"
	 width="273.74px" height="113.387px" viewBox="0 0 273.74 113.387" enable-background="new 0 0 273.74 113.387"
	 xml:space="preserve">
<g>
	<g>
		<path d="M27.281,1.124h12.101v52.558H27.281V33.847h-15.18v19.834H0V1.124h12.101v20.623h15.18V1.124z"/>
		<path d="M66.878,53.682c-2.674,0-5.203-0.489-7.59-1.468c-2.387-0.978-4.511-2.374-6.373-4.189
			c-1.909-1.908-3.377-4.057-4.403-6.444c-1.027-2.386-1.564-4.941-1.611-7.662V1.053h12.101v32.794
			c0,2.102,0.788,3.938,2.363,5.514c1.576,1.48,3.438,2.22,5.585,2.22c1.05,0,2.052-0.215,3.008-0.644
			c0.954-0.43,1.79-1.002,2.506-1.719c0.716-0.716,1.264-1.551,1.646-2.506c0.381-0.954,0.573-1.98,0.573-3.079V1.053h12.101v32.508
			c0.048,2.721-0.442,5.299-1.468,7.734c-1.027,2.434-2.435,4.558-4.224,6.373c-1.791,1.814-3.892,3.258-6.302,4.332
			c-2.411,1.074-4.977,1.636-7.698,1.683H66.878z"/>
		<path d="M109.625,54.685c-1.671,0-3.33-0.228-4.977-0.681c-1.646-0.453-3.211-1.156-4.689-2.112
			c-2.578-1.67-4.583-3.831-6.016-6.48s-2.148-5.549-2.148-8.7h12.101c0,1.432,0.311,2.542,0.931,3.33
			c0.62,0.788,1.169,1.325,1.647,1.611c0.859,0.573,1.791,0.884,2.792,0.932c1.003,0.047,1.98-0.144,2.936-0.574
			c0.668-0.286,1.206-0.644,1.611-1.073c0.405-0.43,0.716-0.848,0.931-1.254c0.215-0.405,0.346-0.798,0.395-1.181
			c0.046-0.381,0.072-0.692,0.072-0.931c0-0.237-0.025-0.548-0.072-0.931c-0.048-0.381-0.179-0.788-0.395-1.217
			c-0.214-0.43-0.526-0.847-0.931-1.252c-0.405-0.405-0.943-0.775-1.611-1.11c-0.526-0.238-1.086-0.453-1.683-0.644
			c-0.598-0.19-1.229-0.405-1.897-0.645c-1.193-0.382-2.435-0.812-3.724-1.29c-1.288-0.477-2.577-1.121-3.866-1.933
			c-1.671-1.05-3.079-2.363-4.225-3.938s-1.969-3.269-2.47-5.084c-0.501-1.814-0.669-3.687-0.501-5.621
			c0.167-1.933,0.703-3.783,1.61-5.549c0.859-1.622,1.934-3.031,3.222-4.224c1.29-1.193,2.722-2.136,4.297-2.829
			c1.576-0.691,3.269-1.11,5.084-1.253c1.813-0.144,3.651,0.025,5.513,0.502c1.809,0.429,3.449,1.109,4.921,2.041
			c1.471,0.931,2.741,2.052,3.809,3.365c1.067,1.313,1.886,2.782,2.456,4.404c0.569,1.623,0.854,3.318,0.854,5.083h-12.04
			c0-1.097-0.347-1.862-1.038-2.292c-0.692-0.429-1.301-0.716-1.827-0.859c-0.096,0-0.322-0.035-0.68-0.107
			c-0.357-0.072-0.764-0.072-1.216,0c-0.455,0.072-0.919,0.239-1.396,0.502c-0.478,0.263-0.859,0.68-1.146,1.253
			c-0.382,0.764-0.454,1.563-0.214,2.399c0.238,0.835,0.716,1.492,1.432,1.969c0.668,0.382,1.408,0.729,2.22,1.039
			c0.811,0.311,1.67,0.608,2.578,0.895c0.812,0.239,1.634,0.501,2.469,0.788c0.833,0.286,1.677,0.621,2.532,1.002
			c3.132,1.433,5.587,3.534,7.367,6.301c1.779,2.769,2.669,5.848,2.669,9.237c0,3.343-0.891,6.397-2.669,9.166
			c-1.78,2.77-4.235,4.87-7.367,6.301c-1.234,0.573-2.496,0.99-3.784,1.253C112.202,54.552,110.914,54.685,109.625,54.685z"/>
		<path d="M171.992,53.682h-41.961l21.983-40.887h-19.119V0.694l39.383,0.071l-21.982,40.815h21.696V53.682z"/>
		<path d="M199.953,1.053c3.622,0,7.03,0.692,10.225,2.076c3.194,1.386,5.982,3.258,8.367,5.622
			c2.383,2.363,4.266,5.144,5.648,8.342c1.383,3.199,2.074,6.613,2.074,10.239c0,3.628-0.691,7.042-2.074,10.239
			c-1.383,3.199-3.266,5.979-5.648,8.342c-2.385,2.363-5.173,4.237-8.367,5.621c-3.194,1.385-6.603,2.077-10.225,2.077
			c-3.623,0-7.032-0.692-10.227-2.077c-3.194-1.384-5.971-3.258-8.331-5.621c-2.36-2.363-4.229-5.143-5.612-8.342
			c-1.384-3.197-2.073-6.611-2.073-10.239c0-3.626,0.689-7.041,2.073-10.239c1.383-3.198,3.252-5.979,5.612-8.342
			c2.36-2.363,5.137-4.236,8.331-5.622C192.921,1.745,196.33,1.053,199.953,1.053z M199.988,41.509c1.957,0,3.795-0.369,5.514-1.11
			c1.718-0.739,3.223-1.754,4.511-3.043s2.303-2.793,3.043-4.512c0.74-1.717,1.111-3.555,1.111-5.513
			c0-1.957-0.371-3.795-1.111-5.513c-0.74-1.719-1.755-3.223-3.043-4.511c-1.288-1.29-2.793-2.303-4.511-3.043
			c-1.719-0.74-3.557-1.11-5.514-1.11s-3.795,0.371-5.514,1.11c-1.718,0.74-3.222,1.753-4.512,3.043
			c-1.288,1.289-2.303,2.792-3.043,4.511c-0.739,1.718-1.109,3.556-1.109,5.513c0,1.958,0.37,3.796,1.109,5.513
			c0.74,1.719,1.755,3.223,3.043,4.512c1.29,1.289,2.794,2.304,4.512,3.043C196.193,41.14,198.031,41.509,199.988,41.509z"/>
		<path d="M261.64,1.124h12.101v52.558h-13.104l-17.186-30.647v30.647h-12.101V1.267h13.175l17.114,30.575V1.124z"/>
		<path d="M34.155,70.884H12.531v7.948h17.543v12.102H12.531v8.306h21.625v12.103H0.429V58.855l33.726-0.072V70.884z"/>
		<path d="M85.28,81.911v29.431H73.108v-1.29c-1.337,0.478-2.709,0.823-4.117,1.038c-1.409,0.215-2.805,0.322-4.189,0.322
			c-3.39,0-6.707-0.645-9.953-1.934c-3.247-1.288-6.158-3.222-8.736-5.8c-2.578-2.576-4.5-5.477-5.764-8.699
			c-1.265-3.222-1.897-6.527-1.897-9.918c0-3.389,0.632-6.705,1.897-9.952c1.264-3.247,3.186-6.157,5.764-8.736
			c2.578-2.577,5.489-4.511,8.736-5.8c3.246-1.289,6.563-1.934,9.953-1.934c3.389,0,6.707,0.645,9.953,1.934
			c3.246,1.289,6.158,3.223,8.736,5.8l-8.593,8.593c-1.385-1.385-2.96-2.422-4.726-3.115c-1.766-0.69-3.556-1.037-5.37-1.037
			s-3.604,0.347-5.37,1.037c-1.767,0.693-3.342,1.73-4.727,3.115c-1.384,1.385-2.434,2.961-3.149,4.727
			c-0.717,1.766-1.075,3.557-1.075,5.369c0,1.814,0.358,3.605,1.075,5.371c0.716,1.766,1.765,3.342,3.149,4.726
			c1.242,1.241,2.638,2.208,4.19,2.9c1.55,0.693,3.15,1.099,4.798,1.218c1.646,0.119,3.28-0.037,4.904-0.466
			c1.623-0.431,3.126-1.146,4.511-2.148v-2.649H62.582V81.911H85.28z"/>
		<path d="M98.453,111.342l6.086-14.894L86.566,58.354h13.391l10.813,22.842l9.236-22.842h13.104l-21.554,52.988H98.453z"/>
	</g>
	<g opacity="0.9">
		<g>
			<path fill="#FFFFFF" d="M150.793,92.064l0.688-2.756l-1.678-0.416l-0.669,2.683c-0.441-0.111-0.894-0.216-1.344-0.315
				l0.674-2.701l-1.677-0.418l-0.687,2.753c-0.364-0.081-0.723-0.165-1.072-0.251l0.003-0.008l-2.313-0.578l-0.447,1.79
				c0,0,1.246,0.287,1.219,0.304c0.681,0.168,0.802,0.617,0.783,0.974l-0.524,2.101l-0.483,1.943l-0.875,3.505
				c-0.084,0.208-0.294,0.518-0.769,0.399c0.016,0.023-1.219-0.305-1.219-0.305l-0.834,1.922l2.184,0.542
				c0.405,0.103,0.803,0.208,1.196,0.31l-0.696,2.787l1.677,0.418l0.688-2.758c0.458,0.124,0.9,0.24,1.335,0.346l-0.684,2.745
				l1.677,0.418l0.693-2.78c2.858,0.541,5.01,0.321,5.917-2.264c0.729-2.086-0.038-3.285-1.54-4.07
				c1.094-0.25,1.92-0.972,2.14-2.461C154.459,93.888,152.911,92.795,150.793,92.064z M150.324,101.295
				c-0.519,2.082-4.025,0.958-5.162,0.675l0.921-3.692C147.219,98.562,150.864,99.123,150.324,101.295z M150.842,95.892
				c-0.471,1.895-3.391,0.933-4.34,0.695l0.837-3.348C148.287,93.475,151.334,93.915,150.842,95.892z"/>
		</g>
		<g>
			<path fill="#F7941E" d="M151.112,83.27c-8.188-2.04-16.482,2.944-18.524,11.133c-2.043,8.191,2.941,16.482,11.129,18.527
				c8.19,2.04,16.483-2.942,18.526-11.133C164.285,93.608,159.301,85.313,151.112,83.27z M154.155,95.922
				c-0.22,1.489-1.046,2.211-2.14,2.461c1.502,0.785,2.27,1.984,1.54,4.07c-0.907,2.585-3.059,2.805-5.917,2.264l-0.693,2.78
				l-1.677-0.418l0.684-2.745c-0.435-0.105-0.877-0.222-1.335-0.346l-0.688,2.758l-1.677-0.418l0.696-2.787
				c-0.394-0.102-0.791-0.207-1.196-0.31l-2.184-0.542l0.834-1.922c0,0,1.234,0.328,1.219,0.305
				c0.475,0.118,0.685-0.191,0.769-0.399l0.875-3.505l0.483-1.943l0.524-2.101c0.019-0.356-0.103-0.806-0.783-0.974
				c0.027-0.017-1.219-0.304-1.219-0.304l0.447-1.79l2.313,0.578l-0.003,0.008c0.35,0.086,0.708,0.17,1.072,0.251l0.687-2.753
				l1.677,0.418l-0.674,2.701c0.45,0.1,0.902,0.204,1.344,0.315l0.669-2.683l1.678,0.416l-0.688,2.756
				C152.911,92.795,154.459,93.888,154.155,95.922z"/>
		</g>
		<g>
			<path fill="#F7941E" d="M147.339,93.239l-0.837,3.348c0.949,0.237,3.869,1.199,4.34-0.695
				C151.334,93.915,148.287,93.475,147.339,93.239z"/>
		</g>
		<g>
			<path fill="#F7941E" d="M146.083,98.277l-0.921,3.692c1.137,0.283,4.644,1.407,5.162-0.675
				C150.864,99.123,147.219,98.562,146.083,98.277z"/>
		</g>
	</g>
</g>
</svg>
